<svg xmlns="http://www.w3.org/2000/svg" enable-background="new 0 0 50 50" viewBox="0 0 50 50" id="time-is-money"><circle cx="29.894" cy="20.014" r="19.106" fill="#4498FB"></circle><path fill="#FFF" d="M29.89342,35.05235c-8.29199,0-15.03809-6.7461-15.03809-15.03906
							c0-8.29199,6.74609-15.03809,15.03809-15.03809c8.29248,0,15.03857,6.74609,15.03857,15.03809
							C44.932,28.30626,38.1859,35.05235,29.89342,35.05235z M29.89342,5.4752c-8.01611,0-14.53809,6.52148-14.53809,14.53809
							s6.52197,14.53906,14.53809,14.53906c8.0166,0,14.53857-6.52246,14.53857-14.53906S37.91002,5.4752,29.89342,5.4752z"></path><circle cx="29.894" cy="20.014" r="2.107" fill="#FFF"></circle><rect width=".5" height="1.931" x="29.643" y="5.225" fill="#FFF"></rect><rect width="1.931" height=".5" x="22.017" y="7.793" fill="#FFF" transform="rotate(59.998 22.982 8.043)"></rect><rect width="1.93" height=".5" x="16.958" y="12.852" fill="#FFF" transform="rotate(29.997 17.922 13.102)"></rect><rect width="1.93" height=".5" x="15.105" y="19.763" fill="#FFF"></rect><rect width=".5" height="1.93" x="17.672" y="25.96" fill="#FFF" transform="rotate(60.033 17.922 26.925)"></rect><rect width=".5" height="1.931" x="22.732" y="31.02" fill="#FFF" transform="rotate(30.022 22.982 31.985)"></rect><rect width=".5" height="1.931" x="29.643" y="32.872" fill="#FFF"></rect><rect width="1.93" height=".5" x="35.84" y="31.735" fill="#FFF" transform="rotate(60.011 36.805 31.985)"></rect><rect width="1.93" height=".5" x="40.9" y="26.675" fill="#FFF" transform="rotate(29.997 41.865 26.925)"></rect><rect width="1.93" height=".5" x="42.752" y="19.763" fill="#FFF"></rect><rect width=".5" height="1.93" x="41.615" y="12.137" fill="#FFF" transform="rotate(60.033 41.865 13.102)"></rect><rect width=".5" height="1.93" x="36.555" y="7.077" fill="#FFF" transform="rotate(30.022 36.805 8.043)"></rect><polygon fill="#FFF" points="32.649 25.031 29.643 19.654 29.643 12.105 30.143 12.105 30.143 19.523 33.086 24.787"></polygon><g><path fill="#FFF" d="M26.45788,38.78673h-3.72217v-0.5h3.72217c0.76025,0,1.37842-0.61816,1.37842-1.37891h0.5
					C28.33629,37.94395,27.49352,38.78673,26.45788,38.78673z"></path></g><g><path fill="#D7DCE2" d="M1.00001,36.72519v4.00065c0,0.29574,0.24195,0.53772,0.53772,0.53772h2.24229
					c0.62374,1.3873,1.71533,2.60794,3.13493,3.57583v3.36076c0,0.48935,0.39791,0.89264,0.8926,0.89264h2.62408
					c0.49469,0,0.8926-0.40329,0.8926-0.89264V46.7268c1.09697,0.25275,2.2692,0.39252,3.48446,0.39252
					s2.38749-0.13978,3.48443-0.39252v1.47335c0,0.48935,0.39791,0.89264,0.89264,0.89264h2.62405
					c0.49473,0,0.89264-0.40329,0.89264-0.89264v-3.36076c2.30681-1.57014,3.75329-3.82319,3.75329-6.32896
					c0-4.75348-5.21591-8.60355-11.64704-8.60355c-2.21003,0-4.28028,0.45167-6.03864,1.24749
					c-0.82808-0.83346-2.03795-1.32816-3.49519-1.34966l-0.00535,0.01073c-0.37641,1.32281-0.26886,2.54879,0.20969,3.5436
					c-0.84958,0.83346-1.49485,1.79062-1.88738,2.82842h-2.0541C1.24196,36.18747,1.00001,36.42942,1.00001,36.72519z"></path></g><circle cx="6.549" cy="35.919" r=".918" fill="#17416B"></circle><g><rect width="8.074" height=".885" x="11.209" y="33.175" fill="#17416B"></rect></g><g><rect width="12.411" height="2.803" x="36.312" y="45.906" fill="#FED932"></rect><rect width="12.411" height="2.803" x="36.312" y="40.3" fill="#FED932"></rect><rect width="12.411" height="2.803" x="34.565" y="43.103" fill="#FED932"></rect><rect width=".5" height="2.803" x="45.157" y="43.103" fill="#FFF"></rect><rect width=".5" height="2.803" x="42.838" y="43.103" fill="#FFF"></rect><rect width=".5" height="2.803" x="40.52" y="43.103" fill="#FFF"></rect><rect width=".5" height="2.803" x="38.203" y="43.103" fill="#FFF"></rect><rect width=".5" height="2.803" x="35.884" y="43.103" fill="#FFF"></rect><rect width=".5" height="2.804" x="46.903" y="40.299" fill="#FFF"></rect><rect width=".5" height="2.804" x="44.585" y="40.299" fill="#FFF"></rect><rect width=".5" height="2.804" x="42.267" y="40.299" fill="#FFF"></rect><rect width=".5" height="2.804" x="39.949" y="40.299" fill="#FFF"></rect><rect width=".5" height="2.804" x="37.631" y="40.299" fill="#FFF"></rect><rect width=".5" height="2.804" x="46.903" y="45.906" fill="#FFF"></rect><rect width=".5" height="2.804" x="44.585" y="45.906" fill="#FFF"></rect><rect width=".5" height="2.804" x="42.267" y="45.906" fill="#FFF"></rect><rect width=".5" height="2.804" x="39.949" y="45.906" fill="#FFF"></rect><rect width=".5" height="2.804" x="37.631" y="45.906" fill="#FFF"></rect></g><g><polygon fill="#FFF" points="28.973 13.102 29.89 11.706 30.814 13.102"></polygon></g><g><polygon fill="#FFF" points="33.175 23.654 33.161 25.324 31.628 24.651"></polygon></g></svg>